<svg width="650" height="650" viewBox="0 0 650 650" fill="none" xmlns="http://www.w3.org/2000/svg">
    <path d="M75.769 314.363L149.97 593.199H149.968C153.197 605.344 165.665 612.566 177.802 609.337L253.937 589.085C243.507 577.219 239.219 560.401 244.04 544.142L290.882 386.356L175.817 370.849C149.784 367.339 131.556 343.389 135.047 317.391L140.954 273.479L91.8983 286.527C79.7761 289.747 72.5403 302.226 75.769 314.363Z" fill="#4B7DA9"/>
    <path d="M283.163 579.477L464.867 633.437C482.993 638.537 489.493 629.037 493.134 618.097L575.054 341.487C577.493 327.037 569.993 317.037 559.923 313.187L378.223 259.227C366.203 255.667 355.229 263.184 349.943 274.577L267.823 551.187C264.253 563.237 271.113 575.887 283.163 579.477Z" fill="#D3C8AC"/>
    <path d="M298.032 362.3L179.137 346.276C166.693 344.595 157.942 333.13 159.623 320.679L198.152 34.7187C199.824 22.2751 211.304 13.5329 223.722 15.205L411.576 40.5204C424.011 42.2011 432.753 53.6732 431.081 66.1082L407.376 242.036L385.279 235.475C360.102 227.984 333.639 242.371 326.176 267.52L298.032 362.3Z" fill="#B8C2BE"/>
</svg>
