<svg width="501" height="620" viewBox="0 0 501 620" fill="none" xmlns="http://www.w3.org/2000/svg">
    <path d="M0.769008 299.363L74.9697 578.199H74.9683C78.197 590.344 90.6652 597.566 102.802 594.337L178.937 574.085C168.507 562.219 164.219 545.401 169.04 529.142L215.882 371.356L100.817 355.849C74.7838 352.339 56.5557 328.389 60.0468 302.391L65.9537 258.479L16.8983 271.527C4.77611 274.747 -2.45974 287.226 0.769008 299.363Z" fill="#4B7DA9"/>
    <path d="M208.163 564.477L389.867 618.437C407.993 623.537 414.493 614.037 418.134 603.097L500.054 326.487C502.493 312.037 494.993 302.037 484.923 298.187L303.223 244.227C291.203 240.667 280.229 248.184 274.943 259.577L192.823 536.187C189.253 548.237 196.113 560.887 208.163 564.477Z" fill="#D3C8AC"/>
    <path d="M223.032 347.3L104.137 331.276C91.6929 329.595 82.9422 318.13 84.6228 305.679L123.152 19.7187C124.824 7.27505 136.304 -1.46708 148.722 0.204953L336.576 25.5204C349.011 27.2011 357.753 38.6732 356.081 51.1082L332.376 227.036L310.279 220.475C285.102 212.984 258.639 227.371 251.176 252.52L223.032 347.3Z" fill="#B8C2BE"/>
 </svg>    